<svg width="20" height="20" viewBox="0 0 20 20" fill="none" xmlns="http://www.w3.org/2000/svg">
<g clip-path="url(#clip0_103_277)">
<path d="M14.1089 10.0529C14.1089 12.522 12.0983 14.5679 9.5939 14.5679C7.08949 14.5679 5.07891 12.5573 5.07891 10.0529C5.07891 7.54847 7.12476 5.53789 9.5939 5.53789C12.063 5.53789 14.1089 7.58374 14.1089 10.0529ZM6.70148 10.0529C6.70148 11.6402 8.00659 12.9453 9.5939 12.9453C11.1812 12.9453 12.4863 11.6402 12.4863 10.0529C12.4863 8.46558 11.1812 7.16046 9.5939 7.16046C8.00659 7.16046 6.70148 8.46558 6.70148 10.0529Z" fill="#E7DBB5"/>
<path d="M13.1919 5.36184C13.1919 4.79689 13.6499 4.33891 14.2149 4.33891C14.7798 4.33891 15.2378 4.79689 15.2378 5.36184C15.2378 5.92678 14.7798 6.38477 14.2149 6.38477C13.6499 6.38477 13.1919 5.92678 13.1919 5.36184Z" fill="#E7DBB5"/>
<path d="M16.8604 2.71613C17.8128 3.63323 18.3066 4.93835 18.3066 6.41983L18.3066 13.6861C18.3066 16.7549 16.2608 18.8008 13.192 18.8008L5.96096 18.8008C4.44421 18.8008 3.13909 18.307 2.18671 17.3193C1.2696 16.3669 0.811049 15.0971 0.811049 13.6509L0.811049 6.4551C0.811049 4.93835 1.30488 3.66851 2.18671 2.7514C3.10382 1.79902 4.40893 1.30519 5.92569 1.30519L13.192 1.30519C14.6735 1.30519 15.9433 1.79902 16.8604 2.71613ZM5.92569 2.85722C4.83221 2.85722 3.95038 3.24523 3.35073 3.88015C2.75108 4.51507 2.43362 5.3969 2.43362 6.4551L2.43362 13.6509C2.43362 14.7091 2.75108 15.5909 3.35073 16.2258C3.98565 16.8607 4.86749 17.1782 5.96096 17.1782L13.192 17.1782C14.2502 17.1782 15.132 16.8607 15.767 16.2258C16.3666 15.6262 16.6841 14.7091 16.6841 13.6509L16.6841 6.38456C16.6841 5.32636 16.3666 4.44452 15.7317 3.8096C15.0968 3.20995 14.2149 2.85722 13.192 2.85722L5.92569 2.85722Z" fill="#E7DBB5"/>
</g>
<defs>
<clipPath id="clip0_103_277">
<rect width="20" height="20" fill="white" transform="matrix(1.19249e-08 -1 -1 -1.19249e-08 20 20)"/>
</clipPath>
</defs>
</svg>
