<svg width="27" height="28" viewBox="0 0 27 28" fill="none" xmlns="http://www.w3.org/2000/svg">
<path d="M13.9658 5.6001L16.6658 5.6001C16.6948 5.7224 16.7174 5.84625 16.7333 5.9711C16.8157 6.94485 17.2452 7.85177 17.938 8.51456C18.6308 9.17735 19.537 9.54838 20.4796 9.5551L20.4796 12.1941C20.3533 12.2367 20.2208 12.2556 20.0881 12.2501C19.46 12.1782 18.8376 12.0612 18.2251 11.9001C17.6965 11.6891 17.1823 11.4412 16.6861 11.1581L16.6861 11.5081C16.6861 12.9081 16.6861 14.3501 16.6861 15.7711C16.6929 16.3494 16.6567 16.9275 16.5781 17.5001C16.4597 18.4559 16.1072 19.3643 15.5542 20.1388C15.0012 20.9132 14.2661 21.5278 13.4191 21.9241C12.9213 22.1139 12.4116 22.2683 11.8936 22.3861L10.9553 22.3861C10.916 22.3668 10.8754 22.3504 10.8338 22.3371C9.88289 22.2117 8.9896 21.795 8.26816 21.1404C7.54673 20.4858 7.02994 19.6229 6.78384 18.6621C6.67054 18.244 6.58484 17.8183 6.52734 17.3881L6.52734 16.5691C6.60159 16.1841 6.65559 15.7991 6.76359 15.4211C7.06781 14.4117 7.65556 13.5195 8.45161 12.8586C9.24767 12.1976 10.2158 11.7981 11.2321 11.7111C11.5358 11.6621 11.8396 11.6481 12.1636 11.6201C12.1636 12.5301 12.1636 13.3701 12.1636 14.2171C12.1636 14.4201 12.0623 14.4481 11.9003 14.4971C11.3828 14.6201 10.8751 14.7839 10.3816 14.9871C10.0015 15.1356 9.67496 15.4023 9.4466 15.7506C9.21824 16.099 9.09923 16.5119 9.10584 16.9331C9.07722 17.4107 9.18486 17.8865 9.41534 18.301C9.64583 18.7155 9.98893 19.0505 10.4018 19.2641C10.7794 19.5062 11.218 19.6262 11.6616 19.6088C12.1052 19.5913 12.5338 19.4372 12.8926 19.1661C13.1612 18.9666 13.3866 18.7109 13.554 18.4155C13.7214 18.1201 13.8272 17.7916 13.8646 17.4511C13.9453 16.7544 13.9791 16.0527 13.9658 15.3511C13.9658 12.2431 13.9658 9.13276 13.9658 6.0201C13.9861 5.8731 13.9726 5.7401 13.9658 5.6001Z" fill="#E7DBB5"/>
</svg>
