<svg width="18" height="16" viewBox="0 0 18 16" fill="none" xmlns="http://www.w3.org/2000/svg">
<path d="M4.25879 12.7758V15.6959C4.25879 15.8784 4.38046 16.0001 4.56297 16.0001H12.5326C12.7151 16.0001 12.8367 15.8784 12.8367 15.6959V12.7758V10.9507C12.8367 10.7682 12.7151 10.6465 12.5326 10.6465H4.56297C4.38046 10.6465 4.25879 10.7682 4.25879 10.9507V12.7758ZM5.35385 11.6807H11.7417V12.7149H5.35385V11.6807ZM5.35385 13.81H11.7417V14.8442H5.35385V13.81Z" fill="#D2B16D"/>
<path d="M12.7759 3.1635V0H4.25879V3.1635V5.29278H12.7759V3.1635Z" fill="#D2B16D"/>
<path d="M14.9049 3.16357H13.8099V5.29285V6.38791H3.22433V5.29285V3.16357H2.12928C0.973384 3.16357 0 4.13696 0 5.29285V10.6465C0 11.8024 0.973384 12.7757 2.12928 12.7757H3.22433V10.6465V9.55141H13.8707V10.6465V12.7757H14.9658C16.1217 12.7757 17.0951 11.8024 17.0951 10.6465V5.35369C17.0342 4.13696 16.0608 3.16357 14.9049 3.16357Z" fill="#D2B16D"/>
</svg>
