<svg width="23" height="18" viewBox="0 0 23 18" fill="none" xmlns="http://www.w3.org/2000/svg">
<path d="M22.7628 13.6894C22.7628 13.6894 22.5386 15.3071 21.8493 16.0194C20.9746 16.953 19.9949 16.9585 19.5457 17.0114C16.3278 17.25 11.5014 17.25 11.5014 17.25H11.4907C11.4907 17.25 6.66425 17.25 3.44712 17.0114C2.99791 16.9585 2.01897 16.953 1.14353 16.0194C0.454969 15.3071 0.23 13.6894 0.23 13.6894C0.23 13.6894 0 11.7912 0 9.89306V8.11381C0 6.21425 0.23 4.31675 0.23 4.31675C0.23 4.31675 0.45425 2.69975 1.14353 1.98888C2.01897 1.05525 3.16681 1.08344 3.67856 0.985813C5.51784 0.805687 11.4964 0.75 11.4964 0.75C11.4964 0.75 16.3278 0.758249 19.5457 0.994062C19.9949 1.04906 20.9746 1.05456 21.8493 1.98819C22.5378 2.69906 22.7628 4.31606 22.7628 4.31606C22.7628 4.31606 22.9928 6.21425 22.9928 8.11312V9.89237C22.9928 11.7913 22.7628 13.6894 22.7628 13.6894Z" fill="#E7DBB5"/>
<path d="M8.625 13.125V4.875L15.8125 9L8.625 13.125Z" fill="#212121"/>
</svg>
